<svg width="162" height="149" viewBox="0 0 162 149" fill="none" xmlns="http://www.w3.org/2000/svg">
<path fill-rule="evenodd" clip-rule="evenodd" d="M26.2121 1.71981C11.0584 5.50209 4.0229 10.7893 1.20193 20.5134C-1.11899 28.5111 -0.239432 38.4119 5.25408 66.1212C11.7596 98.9362 16.5868 109.406 32.6868 125.623C40.4226 133.416 43.7854 135.993 51.1147 139.752C65.5871 147.172 72.8238 149.005 87.4726 148.962C97.8171 148.932 101.01 148.542 106.34 146.656C125.847 139.755 149.627 115.318 158.328 93.2309C163.07 81.1954 161.8 71.607 154.997 68.0832C150.128 65.5604 136.287 66.729 124.438 70.664C108.455 75.9721 95.5629 76.3294 86.5322 71.7138C81.2828 69.0303 73.5171 60.1624 69.8166 52.6248C68.0913 49.111 64.6837 40.5954 62.2432 33.6995C54.2365 11.0747 48.8884 3.13592 40.1725 0.93741C34.7876 -0.420815 34.7846 -0.420815 26.2121 1.71981Z" fill="black"/>
</svg>
